<svg width="23" height="23" viewBox="0 0 23 23" fill="none" xmlns="http://www.w3.org/2000/svg">
<path d="M11.5 5.51837C8.25403 5.51837 5.56451 8.16152 5.56451 11.4539C5.56451 14.7462 8.20766 17.3893 11.5 17.3893C14.7923 17.3893 17.4355 14.6998 17.4355 11.4539C17.4355 8.20789 14.746 5.51837 11.5 5.51837ZM11.5 15.2563C9.4133 15.2563 7.69758 13.5405 7.69758 11.4539C7.69758 9.36716 9.4133 7.65144 11.5 7.65144C13.5867 7.65144 15.3024 9.36716 15.3024 11.4539C15.3024 13.5405 13.5867 15.2563 11.5 15.2563Z" fill="white"/>
<path d="M17.6622 6.72874C18.4049 6.72874 19.007 6.12667 19.007 5.38398C19.007 4.64129 18.4049 4.03922 17.6622 4.03922C16.9195 4.03922 16.3175 4.64129 16.3175 5.38398C16.3175 6.12667 16.9195 6.72874 17.6622 6.72874Z" fill="white"/>
<path d="M21.1452 1.90121C19.9395 0.649193 18.2238 0 16.2762 0H6.72379C2.68952 0 0 2.68952 0 6.72379V16.2298C0 18.2238 0.649193 19.9395 1.94758 21.1915C3.1996 22.3972 4.86895 23 6.77016 23H16.2298C18.2238 23 19.8931 22.3508 21.0988 21.1915C22.3508 19.9859 23 18.2702 23 16.2762V6.72379C23 4.77621 22.3508 3.10685 21.1452 1.90121ZM20.9597 16.2762C20.9597 17.7137 20.4496 18.873 19.6149 19.6613C18.7802 20.4496 17.621 20.8669 16.2298 20.8669H6.77016C5.37903 20.8669 4.21976 20.4496 3.38508 19.6613C2.5504 18.8266 2.13306 17.6673 2.13306 16.2298V6.72379C2.13306 5.33266 2.5504 4.17339 3.38508 3.33871C4.17339 2.5504 5.37903 2.13306 6.77016 2.13306H16.3226C17.7137 2.13306 18.873 2.5504 19.7077 3.38508C20.496 4.21976 20.9597 5.37903 20.9597 6.72379V16.2762Z" fill="white"/>
</svg>
