<svg width="13" height="17" viewBox="0 0 13 17" fill="none" xmlns="http://www.w3.org/2000/svg">
<path d="M3.24999 5.57144C3.24999 4.80246 3.56737 4.14593 4.20214 3.60185C4.8369 3.05776 5.60285 2.78572 6.49999 2.78572C7.39713 2.78572 8.16308 3.05776 8.79785 3.60185C9.43261 4.14593 9.75 4.80246 9.75 5.57144C9.75 6.34041 9.43261 6.99694 8.79785 7.54103C8.16308 8.08511 7.39713 8.35716 6.49999 8.35716C5.60285 8.35716 4.8369 8.08511 4.20214 7.54103C3.56737 6.99694 3.24999 6.34041 3.24999 5.57144ZM-1.90735e-05 5.57144C-1.90735e-05 6.36217 0.139629 7.01145 0.418927 7.51926L5.04003 15.9417C5.17544 16.1811 5.37645 16.3697 5.64306 16.5076C5.90966 16.6454 6.1953 16.7143 6.49999 16.7143C6.80468 16.7143 7.09032 16.6454 7.35693 16.5076C7.62353 16.3697 7.8203 16.1811 7.94726 15.9417L12.5811 7.51926C12.8604 7.01145 13 6.36217 13 5.57144C13 4.03349 12.3652 2.72043 11.0957 1.63226C9.82617 0.544086 8.29426 0 6.49999 0C4.70572 0 3.17381 0.544086 1.90428 1.63226C0.634748 2.72043 -1.90735e-05 4.03349 -1.90735e-05 5.57144Z" fill="white"/>
</svg>
