<svg width="140" height="75" viewBox="0 0 140 75" fill="none" xmlns="http://www.w3.org/2000/svg">
<path d="M4.28934 51.4706C3.91204 51.4706 3.5943 51.3725 3.33615 51.1765C3.09785 50.9607 2.9787 50.6765 2.9787 50.3235V29.6471C2.9787 29.3137 3.08791 29.0393 3.30636 28.8235C3.5248 28.6078 3.80281 28.5 4.1404 28.5H11.3787C12.5702 28.5 13.6425 28.7549 14.5957 29.2647C15.5687 29.7549 16.3334 30.4313 16.8893 31.2941C17.4653 32.1569 17.7532 33.1569 17.7532 34.2941C17.7532 35.3529 17.4653 36.2941 16.8893 37.1177C16.3134 37.9412 15.5589 38.5687 14.6255 39C15.956 39.3529 17.0283 40.0196 17.8425 41C18.6568 41.9607 19.0638 43.1863 19.0638 44.6765C19.0638 46.0099 18.756 47.1863 18.1404 48.2059C17.5248 49.2254 16.6708 50.0294 15.5787 50.6176C14.5064 51.1863 13.2751 51.4706 11.8851 51.4706H4.28934ZM5.3021 49.2647H11.8851C12.8383 49.2647 13.6823 49.0784 14.417 48.7059C15.1517 48.3334 15.7276 47.804 16.1447 47.1177C16.5617 46.4313 16.7702 45.6176 16.7702 44.6765C16.7702 43.7941 16.5617 43.0294 16.1447 42.3824C15.7276 41.7157 15.1517 41.2059 14.417 40.8529C13.6823 40.4804 12.8383 40.2941 11.8851 40.2941H5.3021V49.2647ZM5.3021 38.0882H11.3787C12.5702 38.0882 13.5532 37.7549 14.3276 37.0882C15.1021 36.4216 15.4893 35.4902 15.4893 34.2941C15.4893 33.1177 15.1021 32.2254 14.3276 31.6177C13.5532 31.0099 12.5702 30.7059 11.3787 30.7059H5.3021V38.0882ZM32.954 51.9412C31.1468 51.9412 29.5383 51.5981 28.1285 50.9118C26.7383 50.2254 25.6462 49.2746 24.8519 48.0588C24.0774 46.8431 23.6902 45.451 23.6902 43.8824V29.6471C23.6902 29.3137 23.7994 29.0393 24.0179 28.8235C24.2362 28.6078 24.5143 28.5 24.8519 28.5C25.1894 28.5 25.4675 28.6078 25.686 28.8235C25.9043 29.0393 26.0136 29.3137 26.0136 29.6471V43.8824C26.0136 45.0393 26.3015 46.0588 26.8774 46.9412C27.4732 47.8235 28.2973 48.5196 29.3498 49.0294C30.4022 49.5196 31.6036 49.7647 32.954 49.7647C34.2845 49.7647 35.466 49.5196 36.4987 49.0294C37.5313 48.5196 38.3355 47.8235 38.9115 46.9412C39.5072 46.0588 39.8051 45.0393 39.8051 43.8824V29.6471C39.8051 29.3137 39.9143 29.0393 40.1328 28.8235C40.3511 28.6078 40.6292 28.5 40.9668 28.5C41.3242 28.5 41.6022 28.6078 41.8008 28.8235C42.0192 29.0393 42.1285 29.3137 42.1285 29.6471V43.8824C42.1285 45.451 41.7313 46.8431 40.937 48.0588C40.1625 49.2746 39.0802 50.2254 37.6902 50.9118C36.32 51.5981 34.7413 51.9412 32.954 51.9412ZM54.8576 51.4706C54.5398 51.4706 54.2619 51.3628 54.0236 51.1471C53.8051 50.9118 53.6959 50.6372 53.6959 50.3235V28.5H56.0193V50.3235C56.0193 50.6372 55.91 50.9118 55.6917 51.1471C55.4732 51.3628 55.1951 51.4706 54.8576 51.4706ZM46.6364 30.5882C46.3185 30.5882 46.0604 30.4902 45.8619 30.2941C45.6632 30.0981 45.564 29.8529 45.564 29.5588C45.564 29.2452 45.6632 28.9902 45.8619 28.7941C46.0604 28.5981 46.3185 28.5 46.6364 28.5H63.1087C63.4264 28.5 63.6845 28.5981 63.8832 28.7941C64.0817 28.9902 64.181 29.2452 64.181 29.5588C64.181 29.8529 64.0817 30.0981 63.8832 30.2941C63.6845 30.4902 63.4264 30.5882 63.1087 30.5882H46.6364ZM76.8842 51.7647C75.1566 51.7647 73.568 51.4706 72.1183 50.8824C70.6687 50.2941 69.4077 49.4706 68.3353 48.4118C67.2829 47.3529 66.4587 46.1078 65.863 44.6765C65.2872 43.2451 64.9991 41.6765 64.9991 39.9706C64.9991 38.2843 65.2872 36.7254 65.863 35.2941C66.4587 33.8628 67.2829 32.6176 68.3353 31.5588C69.4077 30.5 70.6687 29.6765 72.1183 29.0882C73.568 28.5 75.1566 28.2059 76.8842 28.2059C78.5921 28.2059 80.1708 28.5 81.6204 29.0882C83.0702 29.6765 84.3311 30.5 85.4034 31.5588C86.4757 32.6176 87.2999 33.8628 87.8757 35.2941C88.4715 36.7254 88.7694 38.2843 88.7694 39.9706C88.7694 41.6765 88.4715 43.2451 87.8757 44.6765C87.2999 46.1078 86.4757 47.3529 85.4034 48.4118C84.3311 49.4706 83.0702 50.2941 81.6204 50.8824C80.1708 51.4706 78.5921 51.7647 76.8842 51.7647ZM76.8842 49.5882C78.2545 49.5882 79.5255 49.3529 80.697 48.8824C81.8687 48.3922 82.8815 47.7157 83.7353 46.8529C84.6091 45.9706 85.2842 44.951 85.7608 43.7941C86.2374 42.6177 86.4757 41.3431 86.4757 39.9706C86.4757 38.6177 86.2374 37.3628 85.7608 36.2059C85.2842 35.0294 84.6091 34.0099 83.7353 33.1471C82.8815 32.2647 81.8687 31.5882 80.697 31.1177C79.5255 30.6275 78.2545 30.3824 76.8842 30.3824C75.4942 30.3824 74.2134 30.6275 73.0417 31.1177C71.8702 31.5882 70.8474 32.2647 69.9736 33.1471C69.1198 34.0099 68.4545 35.0294 67.9779 36.2059C67.5013 37.3628 67.263 38.6177 67.263 39.9706C67.263 41.3431 67.5013 42.6177 67.9779 43.7941C68.4545 44.951 69.1198 45.9706 69.9736 46.8529C70.8474 47.7157 71.8702 48.3922 73.0417 48.8824C74.2134 49.3529 75.4942 49.5882 76.8842 49.5882ZM94.7238 51.4706C94.3862 51.4706 94.1083 51.3628 93.8898 51.1471C93.6713 50.9313 93.5621 50.6569 93.5621 50.3235V29.6471C93.5621 29.3137 93.6713 29.0393 93.8898 28.8235C94.1083 28.6078 94.3862 28.5 94.7238 28.5C95.0813 28.5 95.3791 28.6372 95.6174 28.9118L109.856 47.3824V29.6471C109.856 29.3137 109.965 29.0393 110.183 28.8235C110.402 28.6078 110.68 28.5 111.017 28.5C111.335 28.5 111.603 28.6078 111.822 28.8235C112.06 29.0393 112.179 29.3137 112.179 29.6471V50.3235C112.179 50.6569 112.06 50.9313 111.822 51.1471C111.603 51.3628 111.335 51.4706 111.017 51.4706C110.859 51.4706 110.7 51.4412 110.541 51.3824C110.382 51.3235 110.253 51.2254 110.154 51.0882L95.8855 32.6177V50.3235C95.8855 50.6569 95.7664 50.9313 95.5281 51.1471C95.3096 51.3628 95.0415 51.4706 94.7238 51.4706Z" fill="white"/>
<path d="M104.503 37.6619C105.101 36.9637 105.832 36.3649 106.398 35.6313C106.796 35.116 107.124 34.6574 107.617 34.2265C107.875 34.0004 108.205 34.1124 107.851 33.7166C107.73 33.5813 107.501 33.5537 107.299 33.4938C106.901 33.5612 106.51 33.6485 106.16 33.7993C105.223 34.2004 104.432 34.8813 103.628 35.4894C102.286 36.505 100.93 37.5678 99.465 38.4066C97.2601 39.6691 94.7751 40.6231 92.2247 40.8866C89.718 41.1453 86.9901 40.8809 84.7609 39.6266C83.692 39.0254 83.026 38.1678 82.2703 37.2334C81.9444 36.8316 81.5929 36.47 81.399 35.9869C81.2569 35.6351 81.0981 35.3678 80.8925 35.16C79.8827 35.8543 81.5634 38.6444 81.9499 39.2587C83.083 41.0596 85.4754 42.4863 87.5221 43.0407C88.5009 43.3056 89.5938 43.1543 90.5852 43.0753C91.8676 42.9727 93.1174 42.9156 94.3906 42.679C96.9514 42.2031 99.2615 41.2309 101.577 40.0797C102.755 39.4938 103.652 38.6559 104.503 37.6619Z" fill="#A52E44"/>
<path d="M101.631 26.8165C100.742 27.0541 99.7914 27.109 98.8636 27.0154C99.1124 27.1284 99.3614 27.2431 99.6128 27.3572C101.626 28.2751 103.62 29.3319 105.787 29.6373C106.265 28.9234 106.507 28.0853 106.006 27.2623C105.535 26.4893 104.505 26.4748 103.88 25.8721C103.156 26.2606 102.414 26.6066 101.631 26.8165Z" fill="#A52E44"/>
<path d="M84.2606 38.916C86.7133 40.6041 90.0191 41.0209 92.921 40.5512C95.9995 40.0528 98.735 38.7313 101.201 36.8662C102.524 35.8663 103.816 34.6518 105.283 33.8582C105.905 33.5212 106.517 33.38 107.151 33.3072C107.67 32.8616 108.087 32.7165 108.776 32.6187C109.516 32.5141 109.834 32.2787 109.147 31.7719C108.305 31.1519 107.086 30.2738 106.026 29.9271C104.501 29.8937 103.192 29.3502 101.618 28.6982C98.8325 27.5456 96.0595 25.8987 93.0513 25.3929C89.9375 24.8688 87.0907 25.4777 84.522 27.3063C83.2675 28.199 82.141 29.2013 81.282 30.4835C80.9787 30.9368 80.7022 31.4072 80.427 31.8791C80.438 32.7697 80.581 33.6641 80.869 34.5257C80.8941 34.6003 80.9237 34.675 80.9523 34.7493C81.2311 34.955 81.4505 35.2418 81.6198 35.6572C82.0726 36.7693 83.2689 38.2337 84.2606 38.916Z" fill="#A52E44"/>
<path d="M91.2386 24.709C93.6398 24.8073 95.7264 25.6066 97.8317 26.5469C99.253 26.661 100.71 26.8109 102.079 26.3162C102.836 26.0434 103.572 25.7138 104.305 25.3765C104.654 25.0216 104.979 24.5484 105.218 24.2376C105.529 23.8346 105.972 23.2985 106.129 22.8135C105.247 23.0582 104.4 23.4076 103.497 23.5543C102.359 23.74 101.18 23.7668 100.03 23.794C98.0815 23.8391 96.0543 23.655 94.1383 23.3009C91.2365 22.7659 87.9821 22.8201 85.2669 24.0398C82.4369 25.3104 80.7374 28.0487 80.4661 30.9587C81.4434 29.3982 82.6337 28.0094 84.235 26.921C86.3383 25.4922 88.6468 24.6022 91.2386 24.709Z" fill="#A52E44"/>
<path d="M43.9542 45.6941C47.7424 45.5235 51.5152 45.9254 55.2273 44.9738C58.8389 44.0475 62.3699 42.8079 65.9972 41.9357C68.3221 41.3775 70.8592 41.0238 73.2508 41.4191C74.3908 41.6085 76.3535 42.1984 75.6618 43.7501C75.1471 44.905 74.1997 45.2807 73.2005 45.9722C71.6624 47.0356 72.0698 48.3741 71.6099 49.9071C71.2884 50.9779 70.02 51.4844 69.0863 51.8938C67.628 52.5337 66.4373 53.4071 65.4272 54.5774C66.9496 53.5285 68.3998 52.5851 70.3618 52.7484C71.0567 52.8065 71.8505 53.1043 72.4463 52.6085C73.0769 52.0838 73.0088 50.7768 73.0493 50.0624C73.1415 48.3924 73.8061 47.4794 75.1636 46.4759C76.8607 45.2221 77.3067 43.6675 76.1375 41.8157C73.955 38.3587 68.0086 39.2175 64.7019 40.0084C59.7894 41.184 55.1508 43.4969 50.0038 43.3169C52.2434 42.0921 54.8367 41.5449 57.1178 40.3728C59.3923 39.2032 61.5556 37.8396 63.1306 35.8087C63.9414 34.7629 64.6538 33.6885 65.6524 32.7978C66.8481 31.7315 68.2735 30.9275 69.6875 30.1809C72.0193 28.9504 74.32 27.8149 76.4579 26.2613C79.7299 23.8835 82.8749 20.8738 84.0107 16.9069C84.6029 14.8381 84.4272 12.577 84.6888 10.4544C84.899 8.75571 85.4317 7.26841 86.3784 5.98693C87.0076 5.46162 87.6702 4.95515 88.3401 4.44725C88.4992 4.32735 88.3154 4.07996 88.1567 4.20052C88.1123 4.2341 88.0672 4.26796 88.0229 4.30185L88.0079 4.30032C88.0086 4.28705 87.9942 4.27487 87.9811 4.28528C87.7446 4.46413 87.5232 4.65153 87.3086 4.84366C85.2911 6.3853 83.3439 8.0178 82.3139 10.401C81.8019 11.5846 81.7581 12.9383 81.6038 14.198C81.3953 15.8934 80.7822 17.3612 79.6993 18.6932C77.8543 20.9643 74.9398 22.1965 72.2692 23.2347C69.1885 24.4315 66.0665 25.5159 63.0086 26.7728C59.6997 28.1332 56.4812 29.7234 53.5732 31.8062C50.6456 33.9024 48.5018 36.7979 45.7496 39.0853C43.012 41.3612 39.8296 43.0494 36.751 44.8335C33.9229 46.4734 30.7579 47.5257 28.0152 49.2963C25.211 51.1057 22.8672 53.5699 20.0815 55.4154C18.7978 56.2653 17.4084 56.7681 15.9514 57.2321C14.9493 57.5516 13.8503 57.7921 12.9338 58.3182C12.6503 58.48 12.5413 58.9441 12.8235 59.1674C13.4771 59.6851 15.1023 58.8893 15.6827 58.6465C17.0361 58.081 18.4155 57.5174 19.7002 56.8119C21.5237 55.8094 23.2543 54.6531 25.0898 53.6716C25.6294 53.3831 26.1813 53.129 26.7415 52.9012C28.8628 51.0859 31.1868 49.5226 33.7431 48.3418C36.9372 46.8656 40.4146 45.8528 43.9542 45.6941Z" fill="#A52E44"/>
<path d="M68.9795 51.619C69.8289 51.2485 71.0463 50.8069 71.3465 49.8285C71.55 49.1672 71.4925 48.4962 71.6347 47.829C71.8864 46.6513 72.587 46.0341 73.6078 45.4432C74.6356 44.8484 76.734 42.9907 74.787 42.0856C72.6482 41.0912 69.5723 41.4001 67.3404 41.8607C63.5567 42.6409 59.8968 43.9582 56.1693 44.9532C54.4456 45.4137 52.7253 45.7812 50.9327 45.8351C49.1872 45.8871 47.4417 45.8347 45.6964 45.8576C38.7255 45.9534 32.438 48.5774 27.0803 52.7653C29.9371 51.6732 33.0227 51.3406 36.0971 51.6004C39.3092 51.8729 42.4155 53.0047 45.6711 52.6459C49.2504 52.2504 52.391 49.9828 55.6633 48.666C59.126 47.2725 62.6656 46.0694 66.2342 44.9657C67.8307 44.4712 69.4661 43.8841 71.1237 43.6306C72.2823 43.4535 71.9459 44.4168 71.6029 45.0774C71.095 46.0519 70.2347 46.921 69.4886 47.7224C66.7863 50.6256 63.8002 53.4738 60.1915 55.231C58.4536 56.0768 56.9487 55.51 55.269 54.8604C54.0272 54.3801 52.8332 54.5249 51.541 54.7297C47.6357 55.3479 44.0112 57.0794 40.4739 58.7443C40.291 58.8304 40.3937 59.1125 40.5873 59.0388C43.5238 57.9141 46.3903 56.3672 49.6048 56.2544C52.5524 56.151 54.5784 58.7815 57.5402 58.4597C60.0305 58.1885 62.5335 56.5675 64.621 55.1334C64.8964 54.7743 65.1849 54.4235 65.4923 54.0868C66.5112 52.9713 67.5927 52.2238 68.9795 51.619Z" fill="#A52E44"/>
<path d="M53.8298 42.1091C53.1133 42.3666 52.3831 42.6285 51.6725 42.9257C53.5616 42.8012 55.4066 42.3753 57.2163 41.8554C58.6933 41.2556 60.1796 40.6794 61.6868 40.1659C65.8797 38.7357 70.2101 37.7553 74.3742 36.2321C76.3338 35.5159 78.359 34.8407 80.4155 34.284C80.3286 33.9803 80.2527 33.6723 80.1984 33.3593C78.5191 33.6866 76.8515 34.0944 75.1865 34.5335C70.7528 35.7009 66.2734 36.7456 61.8637 37.9953C61.6841 38.0459 61.506 38.0993 61.3282 38.1525C60.023 39.2156 58.6001 40.0204 57.288 40.6947C56.1753 41.2663 54.9832 41.6946 53.8298 42.1091Z" fill="#A52E44"/>
<path d="M54.8576 51.4706C54.5398 51.4706 54.2619 51.3628 54.0236 51.1471C53.8051 50.9118 53.6959 50.6372 53.6959 50.3235V28.5H56.0193V50.3235C56.0193 50.6372 55.91 50.9118 55.6917 51.1471C55.4732 51.3628 55.1951 51.4706 54.8576 51.4706ZM46.6364 30.5882C46.3185 30.5882 46.0604 30.4901 45.8619 30.2941C45.6632 30.0981 45.564 29.8529 45.564 29.5588C45.564 29.2451 45.6632 28.9901 45.8619 28.7941C46.0604 28.5981 46.3185 28.5 46.6364 28.5H63.1087C63.4264 28.5 63.6845 28.5981 63.8832 28.7941C64.0817 28.9901 64.181 29.2451 64.181 29.5588C64.181 29.8529 64.0817 30.0981 63.8832 30.2941C63.6845 30.4901 63.4264 30.5882 63.1087 30.5882H46.6364Z" fill="white"/>
<mask id="mask0_7_246" style="mask-type:luminance" maskUnits="userSpaceOnUse" x="70" y="23" width="27" height="23">
<path d="M96.2872 23.8088H70.9681V45.8676H96.2872V23.8088Z" fill="white"/>
</mask>
<g mask="url(#mask0_7_246)">
<path d="M76.8957 51.7794C75.1681 51.7794 73.5795 51.4853 72.1298 50.8971C70.6802 50.3088 69.4191 49.4853 68.3468 48.4265C67.2944 47.3676 66.4702 46.1225 65.8744 44.6912C65.2987 43.2598 65.0106 41.6912 65.0106 39.9853C65.0106 38.299 65.2987 36.7401 65.8744 35.3088C66.4702 33.8775 67.2944 32.6323 68.3468 31.5735C69.4191 30.5147 70.6802 29.6912 72.1298 29.1029C73.5795 28.5147 75.1681 28.2206 76.8957 28.2206C78.6036 28.2206 80.1823 28.5147 81.6319 29.1029C83.0815 29.6912 84.3425 30.5147 85.4149 31.5735C86.4872 32.6323 87.3113 33.8775 87.8872 35.3088C88.483 36.7401 88.7808 38.299 88.7808 39.9853C88.7808 41.6912 88.483 43.2598 87.8872 44.6912C87.3113 46.1225 86.4872 47.3676 85.4149 48.4265C84.3425 49.4853 83.0815 50.3088 81.6319 50.8971C80.1823 51.4853 78.6036 51.7794 76.8957 51.7794ZM76.8957 49.6029C78.2659 49.6029 79.537 49.3676 80.7085 48.8971C81.8802 48.4069 82.8929 47.7304 83.7468 46.8676C84.6206 45.9853 85.2957 44.9657 85.7723 43.8088C86.2489 42.6323 86.4872 41.3578 86.4872 39.9853C86.4872 38.6323 86.2489 37.3775 85.7723 36.2206C85.2957 35.0441 84.6206 34.0245 83.7468 33.1618C82.8929 32.2794 81.8802 31.6029 80.7085 31.1323C79.537 30.6422 78.2659 30.3971 76.8957 30.3971C75.5057 30.3971 74.2249 30.6422 73.0532 31.1323C71.8816 31.6029 70.8589 32.2794 69.9851 33.1618C69.1312 34.0245 68.4659 35.0441 67.9893 36.2206C67.5127 37.3775 67.2744 38.6323 67.2744 39.9853C67.2744 41.3578 67.5127 42.6323 67.9893 43.8088C68.4659 44.9657 69.1312 45.9853 69.9851 46.8676C70.8589 47.7304 71.8816 48.4069 73.0532 48.8971C74.2249 49.3676 75.5057 49.6029 76.8957 49.6029Z" fill="white"/>
</g>
</svg>
