<svg width="23" height="23" viewBox="0 0 23 23" fill="none" xmlns="http://www.w3.org/2000/svg">
<path fill-rule="evenodd" clip-rule="evenodd" d="M22.9949 10.9206C22.8431 4.86315 17.8512 0 11.7101 0C5.63989 0 0.693595 4.75182 0.42527 10.7131C0.420207 10.875 0.415144 11.042 0.415144 11.204C0.415144 13.3243 1.00748 15.2979 2.03522 16.9881L0 23L6.25248 21.0112C7.87255 21.8968 9.73057 22.4079 11.7101 22.4079C17.9474 22.4079 23 17.393 23 11.204C23 11.1078 23 11.0117 22.9949 10.9206ZM11.7101 20.6216C9.7812 20.6216 7.98899 20.0497 6.48536 19.0629L2.84019 20.2218L4.01981 16.725C2.88576 15.1714 2.21241 13.2636 2.21241 11.204C2.21241 10.8953 2.2276 10.5916 2.26304 10.288C2.72881 5.52101 6.78913 1.78636 11.7101 1.78636C16.6918 1.78636 20.7926 5.61716 21.1724 10.4702C21.1926 10.7131 21.2027 10.956 21.2027 11.204C21.2027 16.396 16.9399 20.6216 11.7101 20.6216Z" fill="#F8F8F8"/>
<path fill-rule="evenodd" clip-rule="evenodd" d="M16.947 13.4246C16.6686 13.288 15.3067 12.62 15.0536 12.5289C14.8004 12.4378 14.6131 12.3923 14.4309 12.6706C14.2435 12.9439 13.712 13.5612 13.555 13.7384C13.3879 13.9256 13.231 13.9458 12.9526 13.8092C12.6741 13.6726 11.7831 13.3892 10.7249 12.4479C9.90478 11.7243 9.34282 10.8235 9.18588 10.5502C9.02893 10.277 9.17069 10.1252 9.30738 9.98852C9.43395 9.86201 9.58077 9.66465 9.72759 9.50777C9.76303 9.46223 9.7934 9.41668 9.82378 9.3762C9.8896 9.27499 9.93516 9.17884 10.001 9.04727C10.0972 8.86509 10.0465 8.70315 9.98073 8.56652C9.90985 8.42989 9.35801 7.07873 9.12512 6.52713C8.8973 5.9806 8.66441 6.07169 8.49734 6.07169C8.3404 6.07169 8.15308 6.04639 7.97082 6.04639C7.7835 6.04639 7.4848 6.11723 7.23166 6.3905C6.97852 6.66377 6.26468 7.33176 6.26468 8.68291C6.26468 9.00172 6.32037 9.31547 6.40644 9.6191C6.68489 10.5857 7.28735 11.3852 7.39367 11.5219C7.53036 11.699 9.30738 14.5632 12.1223 15.6715C14.9371 16.7645 14.9371 16.4002 15.4434 16.3496C15.9548 16.3091 17.0837 15.6917 17.3116 15.044C17.5444 14.4063 17.5444 13.8547 17.4736 13.7384C17.4078 13.6321 17.2204 13.5612 16.947 13.4246Z" fill="#F8F8F8"/>
</svg>
