<svg width="24" height="22" viewBox="0 0 24 22" fill="none" xmlns="http://www.w3.org/2000/svg">
<path d="M15.6875 0H8.325C1.59997 0 0 1.46664 0 7.61977V14.3688C0 20.5333 1.58753 22 8.31247 22H15.675C22.4 22 24 20.5448 24 14.3802V7.63125C24 1.46664 22.4125 0 15.6875 0ZM19.375 15.6979H17.625C16.9625 15.6979 16.7625 15.2052 15.575 14.1166C14.5375 13.2 14.1 13.0854 13.8375 13.0854C13.475 13.0854 13.375 13.177 13.375 13.6354V15.0791C13.375 15.4688 13.2375 15.6979 12.125 15.6979C11.0455 15.6314 9.99863 15.3308 9.07066 14.8208C8.14268 14.3108 7.36015 13.606 6.7875 12.7645C5.42803 11.2134 4.48213 9.39297 4.02503 7.44789C4.02503 7.20727 4.125 6.98954 4.62503 6.98954H6.375C6.825 6.98954 6.98753 7.17289 7.1625 7.59688C8.01247 9.88852 9.46253 11.8823 10.05 11.8823C10.275 11.8823 10.375 11.7906 10.375 11.275V8.91454C10.3 7.8375 9.675 7.74579 9.675 7.35625C9.68323 7.25348 9.73483 7.15769 9.81885 7.08922C9.90287 7.02075 10.0127 6.985 10.125 6.98954H12.875C13.25 6.98954 13.375 7.16142 13.375 7.57392V10.7594C13.375 11.1031 13.5375 11.2177 13.65 11.2177C13.875 11.2177 14.05 11.1031 14.4625 10.725C15.3489 9.7341 16.0732 8.63014 16.6125 7.44789C16.6675 7.30564 16.7719 7.18381 16.9096 7.10105C17.0473 7.01828 17.2108 6.97911 17.375 6.98954H19.125C19.65 6.98954 19.7625 7.23017 19.65 7.57392C19.0132 8.88106 18.2254 10.1218 17.3 11.275C17.1125 11.5385 17.0375 11.676 17.3 11.9854C17.475 12.226 18.0875 12.6958 18.5 13.1427C19.1 13.6913 19.5982 14.326 19.975 15.0219C20.125 15.4688 19.875 15.6979 19.375 15.6979Z" fill="white"/>
</svg>
